REM DIRINDEX 1\2,1\3,1\4,1\6,1\5\7,1\5\8
REM DIRNAME cjc114,folder01,folder02,folder03,folder04,folder05,folder06,folder07
TITLE ""
FILE "DB4500_5th_4B_41.mp3" MP3
  TRACK 01 AUDIO
    TITLE "0:"
    INDEX 01 00:00:00
  TRACK 02 AUDIO
    TITLE "2:cjc114_3107"
    INDEX 01 00:00:03
  TRACK 03 AUDIO
    TITLE "0:"
    INDEX 01 00:01:15
  TRACK 04 AUDIO
    TITLE "3:cjc114_3108"
    INDEX 01 00:01:40
  TRACK 05 AUDIO
    TITLE "0:"
    INDEX 01 00:02:53
  TRACK 06 AUDIO
    TITLE "4:cjc114_3109"
    INDEX 01 00:03:06
  TRACK 07 AUDIO
    TITLE "0:"
    INDEX 01 00:06:30
  TRACK 08 AUDIO
    TITLE "2:cjc114_3110"
    INDEX 01 00:07:03
  TRACK 09 AUDIO
    TITLE "0:"
    INDEX 01 00:08:19
  TRACK 10 AUDIO
    TITLE "3:cjc114_3111"
    INDEX 01 00:08:40
  TRACK 11 AUDIO
    TITLE "0:"
    INDEX 01 00:09:65
  TRACK 12 AUDIO
    TITLE "4:cjc114_3112"
    INDEX 01 00:10:19
  TRACK 13 AUDIO
    TITLE "0:"
    INDEX 01 00:13:45
  TRACK 14 AUDIO
    TITLE "2:cjc114_3113"
    INDEX 01 00:14:17
  TRACK 15 AUDIO
    TITLE "0:"
    INDEX 01 00:15:32
  TRACK 16 AUDIO
    TITLE "3:cjc114_3114"
    INDEX 01 00:15:58
  TRACK 17 AUDIO
    TITLE "0:"
    INDEX 01 00:17:14
  TRACK 18 AUDIO
    TITLE "4:cjc114_3115"
    INDEX 01 00:17:39
  TRACK 19 AUDIO
    TITLE "0:"
    INDEX 01 00:20:47
  TRACK 20 AUDIO
    TITLE "2:cjc114_3116"
    INDEX 01 00:21:21
  TRACK 21 AUDIO
    TITLE "0:"
    INDEX 01 00:22:34
  TRACK 22 AUDIO
    TITLE "3:cjc114_3117"
    INDEX 01 00:22:60
  TRACK 23 AUDIO
    TITLE "0:"
    INDEX 01 00:24:04
  TRACK 24 AUDIO
    TITLE "4:cjc114_3118"
    INDEX 01 00:24:25
  TRACK 25 AUDIO
    TITLE "0:"
    INDEX 01 00:28:25
  TRACK 26 AUDIO
    TITLE "2:cjc114_3119"
    INDEX 01 00:28:70
  TRACK 27 AUDIO
    TITLE "0:"
    INDEX 01 00:30:26
  TRACK 28 AUDIO
    TITLE "3:cjc114_3120"
    INDEX 01 00:30:54
  TRACK 29 AUDIO
    TITLE "0:"
    INDEX 01 00:32:17
  TRACK 30 AUDIO
    TITLE "4:cjc114_3121"
    INDEX 01 00:32:39
  TRACK 31 AUDIO
    TITLE "0:"
    INDEX 01 00:36:09
  TRACK 32 AUDIO
    TITLE "2:cjc114_3122"
    INDEX 01 00:36:58
  TRACK 33 AUDIO
    TITLE "0:"
    INDEX 01 00:37:59
  TRACK 34 AUDIO
    TITLE "3:cjc114_3123"
    INDEX 01 00:38:10
  TRACK 35 AUDIO
    TITLE "0:"
    INDEX 01 00:39:33
  TRACK 36 AUDIO
    TITLE "4:cjc114_3124"
    INDEX 01 00:39:56
  TRACK 37 AUDIO
    TITLE "0:"
    INDEX 01 00:43:44
  TRACK 38 AUDIO
    TITLE "2:cjc114_3125"
    INDEX 01 00:44:22
  TRACK 39 AUDIO
    TITLE "0:"
    INDEX 01 00:45:26
  TRACK 40 AUDIO
    TITLE "3:cjc114_3126"
    INDEX 01 00:45:49
  TRACK 41 AUDIO
    TITLE "0:"
    INDEX 01 00:46:47
  TRACK 42 AUDIO
    TITLE "4:cjc114_3127"
    INDEX 01 00:46:72
  TRACK 43 AUDIO
    TITLE "0:"
    INDEX 01 00:52:04
  TRACK 44 AUDIO
    TITLE "2:cjc114_3128"
    INDEX 01 00:52:51
  TRACK 45 AUDIO
    TITLE "0:"
    INDEX 01 00:54:01
  TRACK 46 AUDIO
    TITLE "3:cjc114_3129"
    INDEX 01 00:54:27
  TRACK 47 AUDIO
    TITLE "0:"
    INDEX 01 00:56:10
  TRACK 48 AUDIO
    TITLE "4:cjc114_3130"
    INDEX 01 00:56:31
  TRACK 49 AUDIO
    TITLE "0:"
    INDEX 01 01:00:68
  TRACK 50 AUDIO
    TITLE "2:cjc114_3131"
    INDEX 01 01:01:48
  TRACK 51 AUDIO
    TITLE "0:"
    INDEX 01 01:02:63
  TRACK 52 AUDIO
    TITLE "3:cjc114_3132"
    INDEX 01 01:03:18
  TRACK 53 AUDIO
    TITLE "0:"
    INDEX 01 01:04:43
  TRACK 54 AUDIO
    TITLE "4:cjc114_3133"
    INDEX 01 01:04:70
  TRACK 55 AUDIO
    TITLE "0:"
    INDEX 01 01:09:42
  TRACK 56 AUDIO
    TITLE "2:cjc114_3134"
    INDEX 01 01:10:20
  TRACK 57 AUDIO
    TITLE "0:"
    INDEX 01 01:11:29
  TRACK 58 AUDIO
    TITLE "3:cjc114_3135"
    INDEX 01 01:11:64
  TRACK 59 AUDIO
    TITLE "0:"
    INDEX 01 01:13:28
  TRACK 60 AUDIO
    TITLE "4:cjc114_3136"
    INDEX 01 01:13:57
  TRACK 61 AUDIO
    TITLE "0:"
    INDEX 01 01:16:07
  TRACK 62 AUDIO
    TITLE "2:cjc114_3137"
    INDEX 01 01:16:60
  TRACK 63 AUDIO
    TITLE "0:"
    INDEX 01 01:17:59
  TRACK 64 AUDIO
    TITLE "3:cjc114_3138"
    INDEX 01 01:18:19
  TRACK 65 AUDIO
    TITLE "0:"
    INDEX 01 01:19:28
  TRACK 66 AUDIO
    TITLE "4:cjc114_3139"
    INDEX 01 01:19:56
  TRACK 67 AUDIO
    TITLE "0:"
    INDEX 01 01:24:00
  TRACK 68 AUDIO
    TITLE "2:cjc114_3140"
    INDEX 01 01:24:53
  TRACK 69 AUDIO
    TITLE "0:"
    INDEX 01 01:25:60
  TRACK 70 AUDIO
    TITLE "3:cjc114_3141"
    INDEX 01 01:26:15
  TRACK 71 AUDIO
    TITLE "0:"
    INDEX 01 01:27:53
  TRACK 72 AUDIO
    TITLE "4:cjc114_3142"
    INDEX 01 01:28:06
  TRACK 73 AUDIO
    TITLE "0:"
    INDEX 01 01:31:10
